<mxfile host="Electron" modified="2024-02-15T07:40:52.887Z" agent="Mozilla/5.0 (Macintosh; Intel Mac OS X 10_15_7) AppleWebKit/537.36 (KHTML, like Gecko) draw.io/23.0.2 Chrome/120.0.6099.109 Electron/28.1.0 Safari/537.36" etag="ymI3OA1gNSb_Wx3gvgfP" version="23.0.2" type="device">
  <diagram name="페이지-1" id="XYsbY3sh0fiRI3NfbLLh">
    <mxGraphModel dx="1114" dy="999" grid="1" gridSize="10" guides="1" tooltips="1" connect="1" arrows="1" fold="1" page="1" pageScale="1" pageWidth="827" pageHeight="1169" math="0" shadow="0">
      <root>
        <mxCell id="0" />
        <mxCell id="1" parent="0" />
        <mxCell id="2dQv50A6dgZeMQpk0gkR-13" style="edgeStyle=orthogonalEdgeStyle;rounded=0;orthogonalLoop=1;jettySize=auto;html=1;exitX=1;exitY=0.5;exitDx=0;exitDy=0;entryX=0;entryY=0.5;entryDx=0;entryDy=0;" parent="1" source="2dQv50A6dgZeMQpk0gkR-1" target="2dQv50A6dgZeMQpk0gkR-8" edge="1">
          <mxGeometry relative="1" as="geometry" />
        </mxCell>
        <mxCell id="tx0b06nY8_qCnNC7qoBe-5" style="edgeStyle=orthogonalEdgeStyle;rounded=0;orthogonalLoop=1;jettySize=auto;html=1;exitX=0.5;exitY=1;exitDx=0;exitDy=0;entryX=0.5;entryY=0;entryDx=0;entryDy=0;" edge="1" parent="1" source="2dQv50A6dgZeMQpk0gkR-1" target="tx0b06nY8_qCnNC7qoBe-4">
          <mxGeometry relative="1" as="geometry" />
        </mxCell>
        <mxCell id="2dQv50A6dgZeMQpk0gkR-1" value="신규 사용자인가?" style="rhombus;whiteSpace=wrap;html=1;" parent="1" vertex="1">
          <mxGeometry x="80" y="160" width="120" height="80" as="geometry" />
        </mxCell>
        <mxCell id="2dQv50A6dgZeMQpk0gkR-10" style="edgeStyle=orthogonalEdgeStyle;rounded=0;orthogonalLoop=1;jettySize=auto;html=1;exitX=0.5;exitY=1;exitDx=0;exitDy=0;entryX=0.5;entryY=0;entryDx=0;entryDy=0;" parent="1" source="2dQv50A6dgZeMQpk0gkR-3" target="2dQv50A6dgZeMQpk0gkR-5" edge="1">
          <mxGeometry relative="1" as="geometry" />
        </mxCell>
        <mxCell id="2dQv50A6dgZeMQpk0gkR-3" value="캐릭터 설정" style="rounded=0;whiteSpace=wrap;html=1;" parent="1" vertex="1">
          <mxGeometry x="80" y="400" width="120" height="40" as="geometry" />
        </mxCell>
        <mxCell id="2dQv50A6dgZeMQpk0gkR-11" style="edgeStyle=orthogonalEdgeStyle;rounded=0;orthogonalLoop=1;jettySize=auto;html=1;exitX=0.5;exitY=1;exitDx=0;exitDy=0;entryX=0.5;entryY=0;entryDx=0;entryDy=0;" parent="1" source="2dQv50A6dgZeMQpk0gkR-5" target="2dQv50A6dgZeMQpk0gkR-7" edge="1">
          <mxGeometry relative="1" as="geometry" />
        </mxCell>
        <mxCell id="2dQv50A6dgZeMQpk0gkR-5" value="닉네임 설정" style="rounded=0;whiteSpace=wrap;html=1;" parent="1" vertex="1">
          <mxGeometry x="80" y="480" width="120" height="40" as="geometry" />
        </mxCell>
        <mxCell id="2dQv50A6dgZeMQpk0gkR-12" style="edgeStyle=orthogonalEdgeStyle;rounded=0;orthogonalLoop=1;jettySize=auto;html=1;exitX=1;exitY=0.5;exitDx=0;exitDy=0;entryX=0.25;entryY=1;entryDx=0;entryDy=0;" parent="1" source="2dQv50A6dgZeMQpk0gkR-7" target="2dQv50A6dgZeMQpk0gkR-8" edge="1">
          <mxGeometry relative="1" as="geometry" />
        </mxCell>
        <mxCell id="2dQv50A6dgZeMQpk0gkR-7" value="api/Register&lt;br&gt;&lt;br&gt;신규 코스튬으로 계정 생성" style="rounded=0;whiteSpace=wrap;html=1;fillColor=#fff2cc;strokeColor=#d6b656;" parent="1" vertex="1">
          <mxGeometry x="40" y="560" width="200" height="80" as="geometry" />
        </mxCell>
        <mxCell id="2dQv50A6dgZeMQpk0gkR-15" style="edgeStyle=orthogonalEdgeStyle;rounded=0;orthogonalLoop=1;jettySize=auto;html=1;exitX=1;exitY=0.5;exitDx=0;exitDy=0;entryX=0;entryY=0.5;entryDx=0;entryDy=0;" parent="1" source="2dQv50A6dgZeMQpk0gkR-8" target="2dQv50A6dgZeMQpk0gkR-14" edge="1">
          <mxGeometry relative="1" as="geometry" />
        </mxCell>
        <mxCell id="2dQv50A6dgZeMQpk0gkR-8" value="api/Login&lt;br&gt;&lt;br&gt;계정 존재시&lt;br&gt;신규 코스튬 적용 여부 추가" style="rounded=0;whiteSpace=wrap;html=1;fillColor=#fff2cc;strokeColor=#d6b656;" parent="1" vertex="1">
          <mxGeometry x="240" y="160" width="160" height="80" as="geometry" />
        </mxCell>
        <mxCell id="2dQv50A6dgZeMQpk0gkR-20" style="edgeStyle=orthogonalEdgeStyle;rounded=0;orthogonalLoop=1;jettySize=auto;html=1;exitX=0.5;exitY=1;exitDx=0;exitDy=0;entryX=0.5;entryY=0;entryDx=0;entryDy=0;" parent="1" source="2dQv50A6dgZeMQpk0gkR-14" target="2dQv50A6dgZeMQpk0gkR-19" edge="1">
          <mxGeometry relative="1" as="geometry" />
        </mxCell>
        <mxCell id="tx0b06nY8_qCnNC7qoBe-9" style="edgeStyle=orthogonalEdgeStyle;rounded=0;orthogonalLoop=1;jettySize=auto;html=1;exitX=1;exitY=0.5;exitDx=0;exitDy=0;entryX=0;entryY=0.5;entryDx=0;entryDy=0;" edge="1" parent="1" source="2dQv50A6dgZeMQpk0gkR-14" target="tx0b06nY8_qCnNC7qoBe-4">
          <mxGeometry relative="1" as="geometry">
            <Array as="points">
              <mxPoint x="780" y="200" />
              <mxPoint x="780" y="40" />
              <mxPoint x="20" y="40" />
              <mxPoint x="20" y="320" />
            </Array>
          </mxGeometry>
        </mxCell>
        <mxCell id="2dQv50A6dgZeMQpk0gkR-14" value="계정이 존재하는가?" style="rhombus;whiteSpace=wrap;html=1;" parent="1" vertex="1">
          <mxGeometry x="640" y="160" width="120" height="80" as="geometry" />
        </mxCell>
        <mxCell id="2dQv50A6dgZeMQpk0gkR-18" style="edgeStyle=orthogonalEdgeStyle;rounded=0;orthogonalLoop=1;jettySize=auto;html=1;exitX=0.5;exitY=1;exitDx=0;exitDy=0;entryX=0.5;entryY=0;entryDx=0;entryDy=0;" parent="1" source="2dQv50A6dgZeMQpk0gkR-17" target="2dQv50A6dgZeMQpk0gkR-1" edge="1">
          <mxGeometry relative="1" as="geometry" />
        </mxCell>
        <mxCell id="2dQv50A6dgZeMQpk0gkR-17" value="" style="ellipse;whiteSpace=wrap;html=1;aspect=fixed;fillColor=#dae8fc;strokeColor=#6c8ebf;" parent="1" vertex="1">
          <mxGeometry x="120" y="80" width="40" height="40" as="geometry" />
        </mxCell>
        <mxCell id="2dQv50A6dgZeMQpk0gkR-29" style="edgeStyle=orthogonalEdgeStyle;rounded=0;orthogonalLoop=1;jettySize=auto;html=1;exitX=0.5;exitY=1;exitDx=0;exitDy=0;entryX=0.5;entryY=0;entryDx=0;entryDy=0;" parent="1" source="2dQv50A6dgZeMQpk0gkR-19" target="2dQv50A6dgZeMQpk0gkR-28" edge="1">
          <mxGeometry relative="1" as="geometry" />
        </mxCell>
        <mxCell id="tx0b06nY8_qCnNC7qoBe-8" style="edgeStyle=orthogonalEdgeStyle;rounded=0;orthogonalLoop=1;jettySize=auto;html=1;exitX=0;exitY=0.5;exitDx=0;exitDy=0;entryX=1;entryY=0.5;entryDx=0;entryDy=0;" edge="1" parent="1" source="2dQv50A6dgZeMQpk0gkR-19" target="tx0b06nY8_qCnNC7qoBe-1">
          <mxGeometry relative="1" as="geometry" />
        </mxCell>
        <mxCell id="2dQv50A6dgZeMQpk0gkR-19" value="신규 코스튬이 설정 되었는가?" style="rhombus;whiteSpace=wrap;html=1;" parent="1" vertex="1">
          <mxGeometry x="600" y="280" width="200" height="80" as="geometry" />
        </mxCell>
        <mxCell id="2dQv50A6dgZeMQpk0gkR-24" style="edgeStyle=orthogonalEdgeStyle;rounded=0;orthogonalLoop=1;jettySize=auto;html=1;exitX=0.5;exitY=1;exitDx=0;exitDy=0;entryX=0.5;entryY=0;entryDx=0;entryDy=0;" parent="1" source="2dQv50A6dgZeMQpk0gkR-21" target="2dQv50A6dgZeMQpk0gkR-23" edge="1">
          <mxGeometry relative="1" as="geometry" />
        </mxCell>
        <mxCell id="2dQv50A6dgZeMQpk0gkR-21" value="캐릭터 설정" style="rounded=0;whiteSpace=wrap;html=1;" parent="1" vertex="1">
          <mxGeometry x="400" y="400" width="120" height="40" as="geometry" />
        </mxCell>
        <mxCell id="2dQv50A6dgZeMQpk0gkR-26" style="edgeStyle=orthogonalEdgeStyle;rounded=0;orthogonalLoop=1;jettySize=auto;html=1;exitX=0;exitY=0.5;exitDx=0;exitDy=0;entryX=0.5;entryY=1;entryDx=0;entryDy=0;" parent="1" source="2dQv50A6dgZeMQpk0gkR-23" target="2dQv50A6dgZeMQpk0gkR-8" edge="1">
          <mxGeometry relative="1" as="geometry">
            <Array as="points">
              <mxPoint x="320" y="520" />
            </Array>
          </mxGeometry>
        </mxCell>
        <mxCell id="2dQv50A6dgZeMQpk0gkR-23" value="api/EquipUpdate&lt;br&gt;&lt;br&gt;신규 코스튬으로 업데이트" style="rounded=0;whiteSpace=wrap;html=1;fillColor=#f8cecc;strokeColor=#b85450;" parent="1" vertex="1">
          <mxGeometry x="360" y="480" width="200" height="80" as="geometry" />
        </mxCell>
        <mxCell id="2dQv50A6dgZeMQpk0gkR-28" value="Lobby Server 접속" style="rounded=0;whiteSpace=wrap;html=1;fillColor=#d5e8d4;strokeColor=#82b366;" parent="1" vertex="1">
          <mxGeometry x="640" y="480" width="120" height="80" as="geometry" />
        </mxCell>
        <mxCell id="tx0b06nY8_qCnNC7qoBe-3" style="edgeStyle=orthogonalEdgeStyle;rounded=0;orthogonalLoop=1;jettySize=auto;html=1;exitX=0.5;exitY=1;exitDx=0;exitDy=0;entryX=0.5;entryY=0;entryDx=0;entryDy=0;" edge="1" parent="1" source="tx0b06nY8_qCnNC7qoBe-1" target="2dQv50A6dgZeMQpk0gkR-21">
          <mxGeometry relative="1" as="geometry" />
        </mxCell>
        <mxCell id="tx0b06nY8_qCnNC7qoBe-1" value="api/EquipDefault&lt;br&gt;&lt;br&gt;기본 제공 장비 목록 조회" style="rounded=0;whiteSpace=wrap;html=1;fillColor=#f8cecc;strokeColor=#b85450;" vertex="1" parent="1">
          <mxGeometry x="360" y="280" width="200" height="80" as="geometry" />
        </mxCell>
        <mxCell id="tx0b06nY8_qCnNC7qoBe-6" style="edgeStyle=orthogonalEdgeStyle;rounded=0;orthogonalLoop=1;jettySize=auto;html=1;exitX=0.5;exitY=1;exitDx=0;exitDy=0;entryX=0.5;entryY=0;entryDx=0;entryDy=0;" edge="1" parent="1" source="tx0b06nY8_qCnNC7qoBe-4" target="2dQv50A6dgZeMQpk0gkR-3">
          <mxGeometry relative="1" as="geometry" />
        </mxCell>
        <mxCell id="tx0b06nY8_qCnNC7qoBe-4" value="api/EquipDefault&lt;br&gt;&lt;br&gt;기본 제공 장비 목록 조회" style="rounded=0;whiteSpace=wrap;html=1;fillColor=#f8cecc;strokeColor=#b85450;" vertex="1" parent="1">
          <mxGeometry x="40" y="280" width="200" height="80" as="geometry" />
        </mxCell>
      </root>
    </mxGraphModel>
  </diagram>
</mxfile>
